{"asset":{"version":"2.0","generator":"OrangeFilter Unity Exporter"},"scenes":[{"nodes":[0]}],"scene":0,"nodes":[{"name":"flowerhat","translation":[0.0,0.0,0.0],"rotation":[0.0,0.0,0.0,1.0],"scale":[-1.0,1.0,1.0],"extras":{"components":[]},"children":[1,2]},{"name":"ts","translation":[0.0142979817,0.111903712,-0.09789474],"rotation":[-0.7093139,0.109357163,-0.112884864,0.687147558],"scale":[100.0,100.0,100.0],"extras":{"components":[{"typeName":"SkinnedMeshRenderer","materials":[0]}]},"mesh":0,"skin":0},{"name":"骨架.002","translation":[0.0171117317,0.10181129,-0.004711677],"rotation":[-0.6954489,0.127870321,-0.127870321,0.695448935],"scale":[100.0,100.0,100.0],"extras":{"components":[]},"children":[3]},{"name":"Bone","translation":[0.0,0.0,0.0],"rotation":[0.7071068,0.0,0.0,0.7071067],"scale":[1.0,1.0,1.0],"extras":{"components":[]},"children":[4]},{"name":"Bone.001","translation":[0.0,6.182614E-05,0.0],"rotation":[-0.0274190046,-0.0101980111,0.3636199,0.931088],"scale":[0.99999994,1.0,1.0],"extras":{"components":[]},"children":[5,9,12]},{"name":"Bone.002","translation":[1.50834011E-12,6.09453054E-05,-5.275069E-13],"rotation":[0.0316588059,0.00710093463,-0.281170368,0.959109247],"scale":[1.0,1.0,1.0],"extras":{"components":[]},"children":[6]},{"name":"Bone.003","translation":[5.91597843E-13,6.32812953E-05,1.72803991E-13],"rotation":[-0.0150861731,-0.00276828045,0.296823829,0.95480907],"scale":[1.00000012,0.99999994,0.99999994],"extras":{"components":[]},"children":[7]},{"name":"Bone.004","translation":[-9.402896E-12,6.290916E-05,2.18278724E-13],"rotation":[0.002624456,-0.0124275927,-0.0579823479,0.998236835],"scale":[1.0,1.0,1.0],"extras":{"components":[]},"children":[8]},{"name":"Bone.004_end","translation":[0.0,0.00042918144,0.0],"rotation":[0.0,0.0,0.0,1.0],"scale":[1.0,1.0,1.0],"extras":{"components":[]}},{"name":"Bone.005","translation":[1.50834011E-12,6.09453054E-05,-5.275069E-13],"rotation":[0.000144894482,-0.0351598971,0.5272064,0.8490096],"scale":[1.0,0.99999994,1.00000012],"extras":{"components":[]},"children":[10]},{"name":"Bone.006","translation":[-3.00133236E-13,0.000143552053,3.63797859E-13],"rotation":[0.006619973,0.0104745021,-0.102502309,0.9946556],"scale":[1.0,0.99999994,0.99999994],"extras":{"components":[]},"children":[11]},{"name":"Bone.006_end","translation":[0.0,0.00014809308,0.0],"rotation":[0.0,0.0,0.0,1.0],"scale":[1.0,1.0,1.0],"extras":{"components":[]}},{"name":"Bone.007","translation":[1.50834011E-12,6.09453054E-05,-5.275069E-13],"rotation":[0.0170997716,0.004435279,-0.5966915,0.802276254],"scale":[1.00000012,1.0,1.00000012],"extras":{"components":[]},"children":[13]},{"name":"Bone.008","translation":[2.31193554E-11,0.000143863057,7.27595745E-14],"rotation":[0.0102414219,4.363806E-05,0.108572379,0.9940358],"scale":[0.99999994,1.0,0.99999994],"extras":{"components":[]},"children":[14]},{"name":"Bone.008_end","translation":[0.0,0.00012332866,0.0],"rotation":[0.0,0.0,0.0,1.0],"scale":[1.0,1.0,1.0],"extras":{"components":[]}}],"extras":{"ofVersionMajor":1,"ofVersionMinor":0,"half":false},"meshes":[{"name":"ts","guid":"35c731d2200bf854e920ed4b48ec60a4_ts","primitives":[{"attributes":{"POSITION":0,"NORMAL":1,"TANGENT":2,"TEXCOORD_0":3,"JOINTS_0":4,"WEIGHTS_0":5},"indices":6,"mode":4,"material":0}]}],"animations":[{"name":"Scene","guid":"35c731d2200bf854e920ed4b48ec60a4_Scene","channels":[{"target":{"node":4,"path":"rotation"},"sampler":0},{"target":{"node":5,"path":"rotation"},"sampler":1},{"target":{"node":6,"path":"rotation"},"sampler":2},{"target":{"node":7,"path":"rotation"},"sampler":3}],"samplers":[{"interpolation":"CUBICSPLINE","input":7,"output":8},{"interpolation":"CUBICSPLINE","input":9,"output":10},{"interpolation":"CUBICSPLINE","input":11,"output":12},{"interpolation":"CUBICSPLINE","input":13,"output":14}],"extras":{"target":0}}],"skins":[{"joints":[3,4,5,6,7,9,10,12,13],"skeleton":3,"inverseBindMatrices":15}],"accessors":[{"bufferView":0,"byteOffset":0,"componentType":5126,"type":"VEC3","count":10295,"min":[-0.000193365951,-0.00108116085,-0.000123503618],"max":[0.000317947066,-0.0007415302,0.0006242717]},{"bufferView":1,"byteOffset":0,"componentType":5126,"type":"VEC3","count":10295},{"bufferView":2,"byteOffset":0,"componentType":5126,"type":"VEC4","count":10295},{"bufferView":3,"byteOffset":0,"componentType":5126,"type":"VEC2","count":10295},{"bufferView":4,"byteOffset":0,"componentType":5123,"type":"VEC4","count":10295},{"bufferView":5,"byteOffset":0,"componentType":5126,"type":"VEC4","count":10295},{"bufferView":6,"byteOffset":0,"componentType":5123,"type":"SCALAR","count":58212},{"bufferView":7,"byteOffset":0,"componentType":5126,"type":"SCALAR","count":7,"min":[0.0],"max":[0.966666639]},{"bufferView":8,"byteOffset":0,"componentType":5126,"type":"VEC4","count":21},{"bufferView":9,"byteOffset":0,"componentType":5126,"type":"SCALAR","count":8,"min":[0.0],"max":[0.966666639]},{"bufferView":10,"byteOffset":0,"componentType":5126,"type":"VEC4","count":24},{"bufferView":11,"byteOffset":0,"componentType":5126,"type":"SCALAR","count":7,"min":[0.0],"max":[0.966666639]},{"bufferView":12,"byteOffset":0,"componentType":5126,"type":"VEC4","count":21},{"bufferView":13,"byteOffset":0,"componentType":5126,"type":"SCALAR","count":5,"min":[0.0],"max":[0.966666639]},{"bufferView":14,"byteOffset":0,"componentType":5126,"type":"VEC4","count":15},{"bufferView":15,"byteOffset":0,"componentType":5126,"type":"MAT4","count":9}],"bufferViews":[{"buffer":0,"byteOffset":0,"byteLength":123540,"byteStride":12,"target":34962},{"buffer":0,"byteOffset":123540,"byteLength":123540,"byteStride":12,"target":34962},{"buffer":0,"byteOffset":247080,"byteLength":164720,"byteStride":16,"target":34962},{"buffer":0,"byteOffset":411800,"byteLength":82360,"byteStride":8,"target":34962},{"buffer":0,"byteOffset":494160,"byteLength":82360,"byteStride":8,"target":34962},{"buffer":0,"byteOffset":576520,"byteLength":164720,"byteStride":16,"target":34962},{"buffer":0,"byteOffset":741240,"byteLength":116424,"target":34963},{"buffer":0,"byteOffset":857664,"byteLength":28},{"buffer":0,"byteOffset":857692,"byteLength":336},{"buffer":0,"byteOffset":858028,"byteLength":32},{"buffer":0,"byteOffset":858060,"byteLength":384},{"buffer":0,"byteOffset":858444,"byteLength":28},{"buffer":0,"byteOffset":858472,"byteLength":336},{"buffer":0,"byteOffset":858808,"byteLength":20},{"buffer":0,"byteOffset":858828,"byteLength":240},{"buffer":0,"byteOffset":859068,"byteLength":576}],"buffers":[{"byteLength":859644,"uri":"flowerhat.bin"}],"materials":[{"name":"2","guid":"f5404fd2157731345a493a5f0e635840_2","extras":{"shader":"Unlit","properties":[{"name":"_sRGBEnable","values":[0.0],"type":"Float"},{"name":"_Mode","values":[0.0],"type":"Float"},{"name":"_SrcBlend","values":[1.0],"type":"Float"},{"name":"_DstBlend","values":[0.0],"type":"Float"},{"name":"_ZWrite","values":[1.0],"type":"Float"},{"name":"_Cutoff","values":[0.5],"type":"Float"},{"name":"_Cull","values":[2.0],"type":"Float"},{"name":"_Color","values":[1.0,1.0,1.0,1.0],"type":"Color"},{"name":"_UVScaleOffset","values":[1.0,1.0,0.0,0.0],"type":"Vector"},{"name":"_MainTex","values":[0],"type":"Texture"},{"name":"_FrameCount","values":[1.0],"type":"Float"},{"name":"_FrameX","values":[1.0],"type":"Float"},{"name":"_FrameY","values":[1.0],"type":"Float"},{"name":"_FrameRate","values":[1.0],"type":"Float"},{"name":"_OffsetSpeed","values":[0.0,0.0,0.0,0.0],"type":"Vector"}],"keywords":["_SKIN_ON"]},"pbrMetallicRoughness":{"baseColorTexture":{"index":0}}}],"samplers":[{"magFilter":9729,"minFilter":9729,"wrapS":33071,"wrapT":33071},{"magFilter":9729,"minFilter":9729,"wrapS":10497,"wrapT":10497},{"magFilter":9729,"minFilter":9987,"wrapS":33071,"wrapT":33071},{"magFilter":9729,"minFilter":9987,"wrapS":10497,"wrapT":10497},{"magFilter":9728,"minFilter":9728,"wrapS":33071,"wrapT":33071},{"magFilter":9728,"minFilter":9728,"wrapS":10497,"wrapT":10497},{"magFilter":9728,"minFilter":9984,"wrapS":33071,"wrapT":33071},{"magFilter":9728,"minFilter":9984,"wrapS":10497,"wrapT":10497}],"textures":[{"name":"01 - Default_Base_color","sampler":3,"source":0}],"images":[{"uri":"01 - Default_Base_color.png"}]}